<mxfile host="Electron" modified="2025-09-27T02:29:49.892Z" agent="Mozilla/5.0 (Windows NT 10.0; Win64; x64) AppleWebKit/537.36 (KHTML, like Gecko) draw.io/23.0.2 Chrome/120.0.6099.109 Electron/28.1.0 Safari/537.36" etag="SaW2M-h_2I4XfdsVFDO6" version="23.0.2" type="device">
  <diagram name="PÃ¡gina-1" id="vHO0kH14T5Oq0fkBVf6G">
    <mxGraphModel dx="2110" dy="1022" grid="1" gridSize="10" guides="1" tooltips="1" connect="1" arrows="1" fold="1" page="1" pageScale="1" pageWidth="827" pageHeight="1169" math="0" shadow="0">
      <root>
        <mxCell id="0" />
        <mxCell id="1" parent="0" />
        <mxCell id="YGKJjiZXWerhr1cPiJhv-4" value="&amp;nbsp; &amp;nbsp; &amp;nbsp; &amp;nbsp; &amp;nbsp; &amp;nbsp; &amp;nbsp; &amp;nbsp; &amp;nbsp; App" style="rounded=1;whiteSpace=wrap;html=1;align=left;" vertex="1" parent="1">
          <mxGeometry x="253" y="100" width="320" height="100" as="geometry" />
        </mxCell>
        <mxCell id="YGKJjiZXWerhr1cPiJhv-1" value="Error Occurs" style="rounded=1;whiteSpace=wrap;html=1;" vertex="1" parent="1">
          <mxGeometry x="434" y="120" width="120" height="60" as="geometry" />
        </mxCell>
        <mxCell id="YGKJjiZXWerhr1cPiJhv-5" value="&amp;nbsp; &amp;nbsp; Exception Handling Layer" style="rounded=1;whiteSpace=wrap;html=1;align=left;" vertex="1" parent="1">
          <mxGeometry x="254" y="280" width="320" height="100" as="geometry" />
        </mxCell>
        <mxCell id="YGKJjiZXWerhr1cPiJhv-6" value="Categorization" style="rounded=1;whiteSpace=wrap;html=1;" vertex="1" parent="1">
          <mxGeometry x="434" y="300" width="120" height="60" as="geometry" />
        </mxCell>
        <mxCell id="YGKJjiZXWerhr1cPiJhv-7" value="&amp;nbsp; &amp;nbsp; &amp;nbsp; &amp;nbsp; &amp;nbsp; &amp;nbsp; &amp;nbsp; &amp;nbsp; &amp;nbsp; Logging Layer" style="rounded=1;whiteSpace=wrap;html=1;align=left;" vertex="1" parent="1">
          <mxGeometry x="254" y="470" width="320" height="100" as="geometry" />
        </mxCell>
        <mxCell id="YGKJjiZXWerhr1cPiJhv-8" value="Structured Log" style="rounded=1;whiteSpace=wrap;html=1;" vertex="1" parent="1">
          <mxGeometry x="434" y="490" width="120" height="60" as="geometry" />
        </mxCell>
        <mxCell id="YGKJjiZXWerhr1cPiJhv-9" value="" style="endArrow=classic;html=1;rounded=0;exitX=0.5;exitY=1;exitDx=0;exitDy=0;entryX=0.5;entryY=0;entryDx=0;entryDy=0;" edge="1" parent="1" source="YGKJjiZXWerhr1cPiJhv-4" target="YGKJjiZXWerhr1cPiJhv-5">
          <mxGeometry width="50" height="50" relative="1" as="geometry">
            <mxPoint x="170" y="290" as="sourcePoint" />
            <mxPoint x="220" y="240" as="targetPoint" />
          </mxGeometry>
        </mxCell>
        <mxCell id="YGKJjiZXWerhr1cPiJhv-10" value="" style="endArrow=classic;html=1;rounded=0;exitX=0.5;exitY=1;exitDx=0;exitDy=0;" edge="1" parent="1" source="YGKJjiZXWerhr1cPiJhv-5" target="YGKJjiZXWerhr1cPiJhv-7">
          <mxGeometry width="50" height="50" relative="1" as="geometry">
            <mxPoint x="110" y="470" as="sourcePoint" />
            <mxPoint x="160" y="420" as="targetPoint" />
          </mxGeometry>
        </mxCell>
      </root>
    </mxGraphModel>
  </diagram>
</mxfile>
